<svg id="圖層_1" data-name="圖層 1" xmlns="http://www.w3.org/2000/svg" viewBox="0 0 510 487"><defs><style>.cls-1{fill:#e3eae2;}</style></defs><path class="cls-1" d="M241.1,147.1c8.9-1.3,17.8-2.8,26.8-3.7,6.6-.7,15.7-2.1,21,2.8,10.2,9.3,14.1,26.9,14.2,40,.2,14.5-4.5,31.4-15.2,41.8a43.69,43.69,0,0,1-8.9,6.6c-2.3,1.3-8.1,5.3-10.9,4.4-2.3-.8-4.8-5-5.7-7.4a29.65,29.65,0,0,1-1.2-10.7c.9-27.5,13.5-61.9,41.7-71.5a40.66,40.66,0,0,1,21.6-1.4c7.2,1.5,12.3,6.9,16.9,12.3,10.2,11.9,15.9,25.4,20.2,40.4,2.4,8.5,4.7,17,5.1,25.9.4,8,1.1,16.8-1,24.6-1.8,6.9-5.8,13.4-12,17.1-6,3.6-13.9,3.3-20.5,2.2-16.1-2.8-26.7-16.8-35.7-29.2-10.2-14-18.4-29.2-22.7-46.1a53.4,53.4,0,0,1-1.5-12.5c0-2.1-.4-4.3-.1-6.4s1.1-3.5,2.2-5.5c.9-1.6,1.8-4.5,3-5.8,1.1-1.1,3.1-1.7,4.5-2.4,3.7-1.8,7.3-4.5,11.5-4.6,8.3-.1,17.3-1.2,25.5.7a59.58,59.58,0,0,1,19.8,8.3c6.1,4,11,9.4,16.5,13.9A69.67,69.67,0,0,1,370,195.8c9.2,13.6,12.3,29.8,16.5,45.4,4.3,15.9,5.6,33,2,49.2-3,13.6-13.5,27.1-27.9,29.7-18.3,3.4-36.5,5.6-55,2.7-8.8-1.4-17.4-4.4-26.1-6.1a142.42,142.42,0,0,1-24-6.7A127.1,127.1,0,0,1,233,298.9c-7.4-4.5-13.7-10.3-20.2-16-6-5.3-12.3-9.9-17.9-15.7a109.93,109.93,0,0,1-14.3-18.3,121.39,121.39,0,0,1-10.5-21.8c-3.1-8-7.2-15.8-9.5-24.1a70.25,70.25,0,0,1-2.1-24.6c.8-9,7.3-16.1,12.1-23.5,2.4-3.7,4.6-7.7,8-10.6a85.5,85.5,0,0,1,10-7,93.13,93.13,0,0,1,20.8-9.5c7.3-2.3,14.7-3,22.1-4.5,9.1-1.8,18-4.2,27.3-4.8a227,227,0,0,1,54.6,2.8c8.8,1.5,17.8,2.1,26.4,4.2a184.25,184.25,0,0,1,23.9,7.6,176,176,0,0,1,21.8,10.7c7.9,4.6,13.7,10.9,20.7,16.8,11.2,9.5,21.4,22.5,25.4,36.9,2.2,8.2,6.1,16.5,6.5,25.1a41,41,0,0,1-1.3,12.6c-1.3,4.9-4.1,8.2-7,12.3-3.9,5.4-7,10.3-13.1,13.7-7,3.9-14.4,4-22.3,4.2-8.7.2-17.3,1-26.1-.2a90.36,90.36,0,0,1-24.3-7.1c-14.8-6.6-30.6-12.6-43.1-23.1a105.52,105.52,0,0,1-28.1-37.4c-3.3-7.3-5.1-15.2-6.6-23.1a19.51,19.51,0,0,1,.2-9.6c1.2-3.8,3.9-6.4,6.1-9.6,8.9-13.2,24.5-20.6,39.9-23.5,8.2-1.5,16.3-4.3,24.5-5.7,8.6-1.5,17.8-1.2,26.5-.7,17.8,1.1,34.1,6.8,51.2,11.5,15,4.1,29.2,8.9,41.1,19.3a94.25,94.25,0,0,1,13.6,15.3c5.7,7.7,12.4,13.7,15.6,23a40.15,40.15,0,0,1-2.9,33.6,114,114,0,0,0-5.7,12.3c-1.6,4.1-3,8.8-5.4,12.4s-5.2,7.1-7.9,10.5a222.28,222.28,0,0,1-16.6,18.4c-12,11.9-25.6,21.9-38.7,32.5a144.05,144.05,0,0,1-43.2,23.9c-8.3,2.9-16.4,6.2-24.9,8.5-8.7,2.4-17.5,3.4-26.4,4.9a80.36,80.36,0,0,1-26.8-.1c-8.8-1.7-18-3.8-26.6-6.3a47.43,47.43,0,0,1-18.5-10.2c-5.5-5-9.9-11.3-14.6-17-5-6.1-6-17.2-6.1-24.8-.1-9.3,2.7-17.9,4.2-27,1.5-8.6,3-16.8,5.9-25a160.93,160.93,0,0,1,9.7-22.1c7.7-14.5,18.2-26.9,27.8-40.1s20.9-24.9,34.7-34.1a140,140,0,0,1,19.7-11c7.9-3.6,15.4-8.4,23.5-11.7a85.59,85.59,0,0,1,25.9-6.4c4-.3,7.9-.2,11.9-.3,4.5,0,9.2-.7,13.6.2,7.7,1.5,12.9,5.7,19,10.2a43.38,43.38,0,0,1,14.1,17.9c3.1,7.3,6.3,14.4,8,22.2,2,8.8,1.8,17.8,1.9,26.8,0,4.7.1,9.3.1,14a53.11,53.11,0,0,1-2.1,14.9c-2.1,8.7-3.3,18.9-7.5,26.8-4.5,8.3-9.2,16.7-14.3,24.6-2.5,3.9-6.3,7.1-9.7,10.4l-10.5,10.5c-6.5,6.5-15.4,10.4-23.2,15-8.3,4.8-17.5,6.9-26.7,9.6-8.9,2.6-18.8,2-28.1,1.7-4.3-.1-8.2-1.8-12.3-3.2-4.5-1.5-9.3-2.8-13.6-4.7-3.9-1.8-7.7-4.8-11.3-7.2a130.53,130.53,0,0,1-11.6-7.8c-6.3-5.1-11.4-11.6-15.8-18.3a179.61,179.61,0,0,1-21-45.6c-2.6-8.4-4.7-16.9-6.7-25.4s-4-16.8-3.4-25.6c.3-4.4,1.5-8.5,2.1-12.9a62.43,62.43,0,0,1,2.4-11.4,42.69,42.69,0,0,1,13.4-19.7c3.3-2.8,6.6-5.5,9.9-8.3,3.5-3,7.7-3.9,12.1-5.4,4.1-1.4,8.8-3.7,13.1-4.1,4.8-.5,10,.1,14.8.1a39,39,0,0,1,13.6,2c4.5,1.6,9.1,2.9,13.5,4.7,3.4,1.4,5.5,4.9,7.9,7.6,2.9,3.2,7.5,7,9.5,10.8,1.7,3.3,2.1,8.4,2.9,12,1.1,4.7,2.3,9.4,3.4,14.2,1.1,4.5,2.6,9,2.9,13.6.4,4.9.4,9.8.6,14.7.7,17.9,1.8,35.8.6,53.8-2.1,30.7-6.9,64.9-25.3,90.5A63,63,0,0,1,306,359.1a31.35,31.35,0,0,1-9.3,5.1c-4,1.2-9.8,2.8-14,3-3.9.1-8.5-1.4-12.3-2.1a42.44,42.44,0,0,1-12.1-3.7,64.32,64.32,0,0,1-16.9-12.3c-2.5-2.6-4.5-5.4-6.8-8.2-2.5-3.1-5.5-5.9-8.1-9a126.38,126.38,0,0,1-13.3-19.2c-8.2-14.7-12.4-31-18.9-46.4a214.62,214.62,0,0,1-14.1-49c-.7-4.2-1.2-8.4-1.6-12.7-.5-5,.4-9.1,1.4-14,1.7-8.3,2.8-16.6,4.4-24.8a104.89,104.89,0,0,1,17.1-40.4c9.4-13.5,22.2-24.6,33.4-36.7,22.5-24.4,52.1-41.6,82.7-53.9a352,352,0,0,1,48-15.2,177.75,177.75,0,0,1,27.1-4.3,27,27,0,0,1,12.6,1.4c4.5,1.6,9.1,3.2,13.6,4.8-1.2-.9-2.4-1.8-3.6-2.8,3.7,5.2,7.4,10.5,11.1,15.7,4,5.6,5,12.1,6.8,18.7,1.5,5.8,3.2,11.5,4.6,17.3,1.5,6.3,1.6,13.2,2.3,19.6,2.6,25.4,4.3,50.3,2.2,75.8-1.1,12.9-3.5,25.6-5,38.5a303.1,303.1,0,0,1-6.3,35.5c-3,12.4-6.3,25-11.5,36.6-4.6,10.4-8.5,21.2-13.8,31.3A155.7,155.7,0,0,1,386.9,335c-6.2,7.4-12.7,15.3-21.5,19.6a43.21,43.21,0,0,1-30.2,2.9c-10.6-3-18.8-11.6-26.4-19.2a96.61,96.61,0,0,1-18.1-26.2c-5.2-10.7-11.2-21.1-14.7-32.5-1.6-5.2-3.5-11.2-3.6-16.7,0-2.9.5-5.8.7-8.7s-.1-5.9.3-8.9a31.75,31.75,0,0,1,5-13.2c3.6-5.5,8.5-7.8,14.1-10.8,5.4-2.9,9.9-5.9,16.1-6.4a109.6,109.6,0,0,1,19,.1c12,1.1,23.1,5.5,34.6,8.8,21.8,6.2,41.9,15.1,59.8,29.4s31,33.5,40.6,54.2c4.8,10.5,9.4,22,8.6,33.7-.8,11.3-.4,22.1-5.7,32.5-2.5,4.8-5.7,8.3-9.5,12.1-3.6,3.7-6.8,7.8-10.8,11a48,48,0,0,1-12.8,7.4c-5.7,2.3-11.4,2.7-17.5,3.4-11.7,1.3-22,2.5-33.5-1.3-6-1.9-11.3-5-16.8-8-5-2.7-10.2-5.1-15.1-7.9a100.59,100.59,0,0,1-24-19c-8.5-9.2-14.4-21.3-21-32-12.8-20.9-21.2-44.8-29-68-3.8-11.3-7.9-22.5-11.1-34-3.3-11.8-6.7-24.8-6.9-37.1-.2-10.2,3.9-18.6,10.2-26.4,3.5-4.4,6-9.4,10.3-13.1a51.92,51.92,0,0,1,13.9-8.8c9.5-4.1,20-4.2,30.1-5.8,11.1-1.7,22.3,0,32.8,3.7,10.2,3.5,18.6,9.9,27.8,15.3,10,5.9,18.5,12.3,26.2,21.1a100.13,100.13,0,0,1,15.7,25.3c2.4,5.4,5.1,10.6,7.8,15.8,3,5.8,4.6,12.1,5.8,18.5,2.3,12.3.8,23.7-.8,35.9-1.3,10-3,20.1-6.4,29.7-6.9,19.8-23.1,33.6-42.6,40.7a97.31,97.31,0,0,1-35.8,6.4c-5.8-.1-11.4-.9-17.2-1.4-6.5-.6-13-.8-19.4-1.8-24.2-3.7-48-11.5-70.8-20.2a122.68,122.68,0,0,1-28.2-15.4c-9.1-6.6-16.6-14.8-24.9-22.3-16.4-14.9-29.2-32.2-36.2-53.5-3.7-11.3-9.1-22.3-9.9-34.3a98.68,98.68,0,0,1,3.4-32.9c3.3-11.6,9-22.5,13.3-33.7a114.44,114.44,0,0,1,15.6-28.2c6.7-8.9,15-15.9,23.1-23.4,8.5-7.8,16.9-14.4,27.2-19.6s21.7-9.2,32.7-12.5a126.23,126.23,0,0,1,15.9-3.7c6.4-1.1,12.6-.8,19.1-.6s13,0,19.3,2.2c5.9,2.1,12.2,3.8,17.9,6.3,4.5,2,8,7.1,11.4,10.7,4.1,4.4,8.8,8.1,10.9,13.8,4.2,12.1,10.2,24.6,11.5,37.3,1.2,12.1,2.9,24.4,3.5,36.6.3,6.2-.9,12.6-1.5,18.8-.7,6.9-1.4,13.9-2.1,20.8-1.2,12.5-5.7,24.4-9.3,36.4-1.8,5.9-3.2,12.4-5.9,18-3,6.1-6.4,12-9.6,17.9-2.8,5.1-5.4,10.3-8.3,15.4-3.2,5.8-8.1,10.5-12.4,15.5-8.1,9.4-15.9,19-25.4,27.1a211.61,211.61,0,0,1-27.4,19.4,264.7,264.7,0,0,1-30.2,16.1c-10.4,4.6-22.8,9-34.3,8.7-4.3-.1-9.5-.8-12.8-3.8-4.1-3.7-5.8-10.3-8.1-15.2-2.5-5.6-3.1-12.1-4.2-18.2a93.37,93.37,0,0,1-1.4-19.8c.1-6.3-.1-12.6.3-18.9s3.6-12.9,5.5-19c1.9-5.9,3.8-11.8,5.7-17.6s7-10.5,10.7-15.2l11.1-14.1c2-2.6,3.9-5.4,6.1-7.8,2.5-2.8,6.2-4.5,9.3-6.4,11-6.8,21.8-14.1,33-20.4,5.2-2.9,11.7-3.2,17.5-4.2,6.8-1.2,13.6-2.4,20.5-3.6,6.1-1.1,12.3-2.5,18.5-3.3,6.4-.8,13.4.9,19.8,1.7,12.6,1.6,25.3,3.1,37.9,4.7,6.1.8,12,3.4,17.8,5.4,6.1,2.1,12.1,4.2,18.2,6.3,5.6,1.9,11.4,3.5,16.4,6.6,5.8,3.6,11.4,7.5,17.1,11.3,5.4,3.6,10.6,6.7,14.9,11.7s8.7,10.1,13,15.2c4.1,4.8,6.7,9.7,9.6,15.3,2.9,5.8,6.3,11.5,8.8,17.4s3.8,12.7,5.5,18.8c1.9,6.6,3.4,12.2,3.3,19.1-.1,5.8-.2,11.6-.4,17.4-.1,3.2.1,6.5-.2,9.7s-1.6,6.6-2.5,9.8c-3.4,12.1-6.2,24.6-10.6,36.4a92,92,0,0,1-14.8,25.8c-3.4,4.1-7.3,7.4-10.9,11.3-3.5,3.7-6.6,7.8-10.5,11.2-16.9,14.9-39.4,18.3-60.7,23.1a141.25,141.25,0,0,1-35.5,3.5c-13.3-.3-25.7-3.6-38.6-6.6-5.7-1.3-11.8-2.3-17.4-4.1s-11-4.7-16.2-7.3a276.56,276.56,0,0,1-30.4-17.3c-18.8-12.4-36.4-27.2-52.9-42.5s-31-32-42.8-51.1c-2.7-4.4-5-8.7-4.4-14,.3-2.7,1.3-5.2,1.7-7.9a33,33,0,0,1,1.5-6.2c3.3-9,11.1-14,19.2-18.2,11.5-6,22.9-11.9,34.4-17.9s24.3-8.9,36.6-12.8c12.1-3.8,24.3-8.6,36.8-11.1l38.1-7.5c25.3-5,50.5-8.9,76.1-12,12.5-1.5,25.1-3.1,37.6-4.4,5.7-.6,11.4-1,17.1-1.3,3.2-.1,6.4-.2,9.6-.2,3.9,0,6.6,1,10.3,2.3s7.1,2.2,9.6,5.6c3,3.9,5.1,9.6,6.8,14.3,4,10.8,5.5,22.4,6.3,33.9s.6,24.5-7.8,33.1c-2,2.1-3.9,4.5-6.2,6.1s-5.3,2.5-7.9,3.6a102.61,102.61,0,0,1-19.3,6.7c-24.5,5.4-49.8,6.7-74.8,7.9a486.56,486.56,0,0,1-77.3-2.5c-13.2-1.5-26.5-3-39.7-4.4-6-.7-12.3-.9-18.2-2.2-6.4-1.4-12.7-3.1-19-4.6-24.2-5.8-48.9-10.8-72.5-18.6-22.6-7.5-43.9-17.3-65-28.2-19.7-10.2-38.9-19.9-54.3-36.4-6.6-7-13.3-16-13.5-26.1-.1-5.7,1.2-11.8,1.7-17.5.6-5.9,1.3-11.2,3.5-16.8a64.65,64.65,0,0,1,15.8-23.4c3.2-3,6.9-5.3,10.3-8.1,4.8-3.8,9-8.2,13.8-12,8.9-6.9,20.8-11.3,31.4-14.5a121.37,121.37,0,0,1,31.7-5.1c11.8-.3,23.3-2.7,35.2-2.4a149.8,149.8,0,0,1,35.3,5.2c12.3,3.4,23.4,8.9,34.8,14.4,5.6,2.7,11.1,5.3,16.7,8,5.9,2.8,12.4,5.1,17.6,9.1,10.1,7.7,19.7,16.1,29.6,24.1,5.1,4.2,9.6,7.8,13.2,13.3s7.2,10.9,10.8,16.3c3.2,4.9,6.5,9.8,9.7,14.7,3.8,5.7,6.3,11.7,8.7,18.1a240.92,240.92,0,0,1,10.1,34.6c5,23.8,8.9,47.5,7.2,71.9a95.66,95.66,0,0,1-8.5,33.7,28.83,28.83,0,0,1-8.6,11.2,73,73,0,0,1-13.5,8.5c-11,4.9-22.9,3-34.4,1.4-11.8-1.7-22.1-6.7-32.1-13.1-4.9-3.1-9.8-6.3-14.7-9.4-5.7-3.7-10.2-8-15-12.7-8.3-8.1-17.5-15.7-22.9-26.2-4.7-9.1-5.1-19.1-6.8-28.9a61.84,61.84,0,0,1,4.6-35.5c2.3-5.3,5.3-10.3,8-15.5,3.1-5.8,5.7-11.9,10.1-16.9,4.2-4.8,8.4-9.7,12.7-14.5s9.9-8.5,15.1-12.4c4.5-3.4,8.8-6.9,13.9-9.5a110.69,110.69,0,0,1,16.4-6.7,109.23,109.23,0,0,1,16.9-4c5.8-.9,11.7-.8,17.5-1.5,24.1-3,50.5-4.4,73.1,6.6,18.8,9.2,38.2,16,53.1,31.2a86,86,0,0,1,16.5,23.2c5.3,11,11.3,21.8,15.9,33.1,4.4,10.8,6.1,23.7,7.5,35.2a219,219,0,0,1,1.3,35.3c-.3,7.7,11.7,7.7,12,0a231.62,231.62,0,0,0-8-69.8c-3.1-11.4-9.9-22.3-15-32.9-4.7-9.8-9.6-18.7-16.7-27.1a108.73,108.73,0,0,0-20.8-18.7c-8-5.5-16.7-8.9-25.5-12.9-5.4-2.5-10.7-5.2-16-7.8a80,80,0,0,0-17.9-5.9,152.07,152.07,0,0,0-35-3.9c-11.7.1-23.3,2-34.9,3a122.06,122.06,0,0,0-32.1,7,140.19,140.19,0,0,0-14.3,6.2c-5.6,2.9-10.4,6.8-15.4,10.7-4.4,3.3-9.4,6.4-13.5,10.2-4.6,4.3-8.6,9.8-12.7,14.5-3.9,4.4-7.3,8.4-10,13.6-3,5.7-6,11.4-9,17.2-5.4,10.3-9.3,20.8-10.3,32.5-.9,10.7,1.2,21.7,2.8,32.3a61,61,0,0,0,10.7,25.9c6.7,9.2,15.6,16.8,23.8,24.8,8.8,8.6,19.2,14.6,29.5,21.2,9.5,6.1,19.6,10.9,30.6,13.1,5.2,1,10.4,1.3,15.6,2a55.09,55.09,0,0,0,17.2.3c10.6-1.6,20-6.9,28.5-13.3s12.1-14.6,16-24c8.6-20.6,8.1-45.6,5.4-67.4-1.4-11.7-3.8-23.3-6-34.8a231.21,231.21,0,0,0-9.2-33.8c-1.8-5.2-3.9-10.3-6-15.3-2.6-6-6.2-11.1-9.8-16.5-6.8-10.2-12.9-21.4-20.5-31-3.4-4.3-8.8-7.6-13.1-11.1-5.1-4.1-10.1-8.2-15.2-12.4-4.6-3.7-9.1-7.5-13.7-11.1-4.9-3.9-11.1-6.2-16.8-8.9-21.8-10.4-43-22.2-66.8-27a149.55,149.55,0,0,0-50.5-1.8c-5.9.8-11.7,1-17.6,1.4a137.51,137.51,0,0,0-60.8,18.9c-4.6,2.7-8.5,6.4-12.5,9.9-4.2,3.6-8.6,6.8-12.9,10.3a73.47,73.47,0,0,0-17.6,20.5,68.13,68.13,0,0,0-9.2,28c-1.1,11-3.5,22.3.1,33,6.3,18.7,23.5,32.7,39.3,43.4a192.7,192.7,0,0,0,28.4,15.9c10.4,4.7,20.3,10.5,30.7,15.3,20.7,9.3,42.2,17.5,64.2,22.8l36.1,8.7c11.8,2.8,23.8,6.6,35.8,8.5,12.5,1.9,25.2,2.8,37.7,4.2s25.1,3.2,37.7,4.1a484,484,0,0,0,75.2-.4c12.3-1,24.6-1.4,36.8-3,11.5-1.5,24.4-2.7,35.3-6.9,5.3-2.1,10.5-4.5,15.8-6.8,3.1-1.3,5.4-2.2,7.8-4.6,2.3-2.2,4.4-4.6,6.6-6.9,7.7-8,9.9-19.9,10.2-30.6a153.52,153.52,0,0,0-3.2-33.1c-2-10-5.6-20.9-11.1-29.6-5.1-8.1-13.2-11-21.9-13.9-5.2-1.7-11.3-1-16.7-.8-6.4.2-12.7.7-19,1.3q-36.6,3.9-73.1,9c-24.5,3.5-48.8,8.8-73.1,13.6s-48.1,13.6-71.9,21.1c-11.7,3.7-22.6,10.7-33.5,16.3-9.6,5-20.2,9.3-28.3,16.7a38,38,0,0,0-11.9,21.1c-.9,4.8-2.4,9.7-2.3,14.6a31.48,31.48,0,0,0,4.4,14.9c10.6,18.7,24.8,35.4,40.1,50.4,31.5,30.6,67.1,57.6,107.7,74.7,5.3,2.2,11.2,3.2,16.8,4.5l19.3,4.5a133.91,133.91,0,0,0,35.7,3.3,157.38,157.38,0,0,0,34.8-5.2c11-2.9,22.5-4.4,33.2-8.5,18.9-7.2,32.4-20.6,45.7-35.3,14.7-16.2,21.5-35.1,27.3-55.8,1.6-5.7,3.2-11.3,4.8-17a57.51,57.51,0,0,0,2.2-8.4c.5-3.4.2-7.1.3-10.5.1-5.8.2-11.6.4-17.4.1-2.6.2-5.2.2-7.7-.1-3.8-1.2-7.3-2.3-10.9-1.6-5.6-3.1-11.1-4.7-16.7a91.7,91.7,0,0,0-7.1-17.5c-2.7-5.2-5.3-10.4-8-15.7-2.9-5.7-6.6-10-10.7-14.8l-12.3-14.4c-4-4.7-9.3-7.6-14.4-10.9s-10.3-6.8-15.5-10.2a64.45,64.45,0,0,0-16.1-7.7c-11.5-4-23.1-8-34.6-12-11.3-3.9-24.4-4-36.3-5.5L330.8,178c-6.3-.8-11.9-1.7-18.1-.7-12.3,2.2-24.7,4.3-37,6.5-5.8,1-12.8,1.2-18.3,3.4s-10.9,6.6-16,9.7c-5.4,3.3-10.7,6.6-16.1,10-5,3.1-11.3,5.9-15.6,9.8s-7.5,9.6-11.1,14.1c-4.1,5.2-8.2,10.4-12.3,15.7-3.7,4.7-7,8.5-8.9,14.2-2,6.2-4,12.4-6,18.5-1.7,5.4-4.3,11.1-5.4,16.7-1.2,6.2-.4,13.2-.5,19.5-.1,5.7-.7,11.8-.1,17.5.7,6.3,2.4,12.7,3.6,19,1.1,5.8,3.2,10.6,5.7,15.9,2.3,5,4.3,10,8.4,13.7,7.4,6.6,18.4,7.6,27.8,6.4,22.4-3,42.9-13.6,62-25A232.72,232.72,0,0,0,300.2,344c9.1-7.3,16.7-15.6,24.3-24.5L336,306.2a80.12,80.12,0,0,0,10.6-15.7c2.8-5.1,5.5-10.2,8.3-15.4,3-5.5,6.6-11,8.9-16.8,4.5-11.4,7.3-23.8,10.9-35.6a80.92,80.92,0,0,0,3.7-16.9c.7-6.6,1.3-13.2,2-19.8.6-5.9,1.2-11.9,1.8-17.8.6-6.4-.5-12.9-1.1-19.4-.6-5.8-1.1-11.5-1.7-17.3s-.5-12.2-2.5-17.8c-2-5.8-4.1-11.6-6.1-17.5-2-5.6-3.4-12-6.1-17.3-2.4-4.8-8-9-11.7-12.9s-7.7-9.8-12.4-12.2c-4.9-2.5-10.8-3.8-16-5.7-6.2-2.2-11.5-4.3-18.1-4.5-12.1-.4-23.7-1.1-35.7,1.2-11,2.1-21.3,6.1-31.8,9.7a134.55,134.55,0,0,0-28.8,14c-9.3,6.1-17.3,14.1-25.6,21.5a129.59,129.59,0,0,0-20.1,23,137.58,137.58,0,0,0-14.6,28.9c-4.1,10.7-9.5,20.9-12.6,32a108.14,108.14,0,0,0-4,32.5c.1,5.2.3,10.9,1.6,16,1.5,6,4.5,11.9,6.6,17.8,3.5,9.9,6.6,19.6,11.5,28.9a131.12,131.12,0,0,0,17.8,25.3c7.5,8.5,16.4,15.8,24.6,23.6a139.84,139.84,0,0,0,24.5,18.8,158.76,158.76,0,0,0,29.5,13.1c11.5,3.8,22.8,8.2,34.5,11.4a238.05,238.05,0,0,0,34.6,6.9c11.6,1.4,23.7,2.8,35.4,2.8,21.4-.1,43.7-6.6,61.1-19.4,16.4-12.2,25.9-28.9,30.4-48.6,4.8-21.3,7.9-43.9,2.6-65.4-2.9-11.6-9.2-21.5-14-32.3a113.18,113.18,0,0,0-15.7-25.2c-6.2-7.5-13.6-14.8-21.9-20-5.1-3.2-10.5-5.8-15.4-9.1a98,98,0,0,0-13.2-7.9,89.5,89.5,0,0,0-29.1-8.5,53,53,0,0,0-15.9-.1c-5.6.9-11,1.6-16.6,2.2a64.42,64.42,0,0,0-27.6,9.1,60.18,60.18,0,0,0-11.3,8.8c-4.1,4-6.9,9.4-10.5,13.8a50.57,50.57,0,0,0-11.2,26.2c-1.3,11,1.3,23.1,3.7,33.9,5.1,23.1,13.5,45.9,21.8,68,4.2,11,8.7,21.9,13.6,32.7,5.1,11.3,11.9,21.5,18.4,32.1,6,9.7,11.9,18.4,20.5,26.1a113.12,113.12,0,0,0,25.2,17.1c10.2,5,19.7,11.4,30.7,14.6,10.8,3.2,21.8,3.4,32.9,1.5,5.6-.9,11.4-.9,16.9-2.2a59.55,59.55,0,0,0,14.1-5.7c8.8-4.8,14.9-11.9,21.9-19a56.31,56.31,0,0,0,15.3-26.9,70.59,70.59,0,0,0,1.6-14.4c.1-5.9,1.1-11.9.5-17.8-1.2-11.1-5.1-21.5-9.7-31.6a162.18,162.18,0,0,0-16.5-28.9A154.16,154.16,0,0,0,409,231a181.72,181.72,0,0,0-27.9-13.1c-5.5-2-11.3-3.4-17-5s-11.1-3.7-16.8-5.3a115.52,115.52,0,0,0-33.6-4.1c-5.3.2-11.9,0-16.7,2.4-5.4,2.7-10.7,5.8-16,8.7a32.06,32.06,0,0,0-11.5,9.8,45.93,45.93,0,0,0-6.9,13.6,51.82,51.82,0,0,0-1.8,13.6c-.1,6.2-1.1,12.1-.1,18.3a117.92,117.92,0,0,0,10.4,31.7c4.9,10,9.6,20.6,15.8,30A114.39,114.39,0,0,0,307,354.3c4,3.5,7.6,7.5,12.1,10.4a49.52,49.52,0,0,0,14.7,6c20.3,4.6,39.9-3.1,53.9-17.9,14.3-15.2,26.4-32.4,34.3-51.7,4.6-11.1,9.8-22,13.5-33.4a321.92,321.92,0,0,0,9.1-34.7c2.4-11.8,3.5-23.7,5.4-35.6,2-12.1,3.5-24.2,4.3-36.4,1.6-24.5-.5-48.5-2.9-72.8-.6-6-.8-12.1-1.9-18-1.1-6.1-3.2-12.3-4.8-18.3-1.5-5.7-2.3-12.6-4.9-17.8s-7.1-10.2-10.5-15c-1.5-2.1-2.9-5-4.8-6.7s-4.8-2.3-7.2-3.1c-5.4-1.9-12.2-5.6-18-5.6a157.92,157.92,0,0,0-36.2,5c-42.7,10.5-85.9,27.8-120,56.3-8.3,6.9-15.3,14.7-22.7,22.5-7.7,8.1-16.1,15.8-23.2,24.5a117.14,117.14,0,0,0-24.8,53.1c-.9,5-1.4,10-2.4,15-1.2,6.1-3,12.3-3.8,18.5-.7,5.1.6,10.8,1.2,16,.8,5.9,1.7,11.7,3,17.5,4.8,22.6,14.4,43.8,22.2,65.4a142,142,0,0,0,13.3,27.8c5.5,8.8,12.3,16,18.9,23.9,6.3,7.5,12.2,14.3,20.5,19.7a78.67,78.67,0,0,0,12.2,6.4c5.5,2.3,11.8,2.8,17.7,3.9,2.3.4,4.8,1.2,7.1,1.2,3,0,6.5-1.3,9.4-1.9,6-1.3,11.1-2.3,16.3-5.5a74.65,74.65,0,0,0,20.3-18.9c11.6-15.3,18.1-33.5,22.1-52.1,4.9-22.2,7.8-45.6,7.3-68.3-.3-12.4-1-24.8-1.4-37.2-.2-5.7,0-11.6-1.4-17.2-1.5-6.3-3.1-12.6-4.6-18.9-1.4-5.6-2.5-11.4-4.1-17-1.6-5.2-7.1-9.6-10.6-13.7s-7.2-10-12.4-11.9c-5.7-2.1-11.4-4-17.2-5.9-3.2-1.1-5.6-2-9-2.1-3-.1-5.9,0-8.9-.1-5.9,0-12.5-.9-18.3.7s-11.6,4-17.3,5.9c-2.6.9-5,1.5-7.2,3.1-2.7,1.9-5.1,4.3-7.6,6.4-4.3,3.6-9.2,7-12.6,11.4a60,60,0,0,0-8,13.6,62.63,62.63,0,0,0-4,13.4c-1,5.8-2.2,11.5-2.8,17.4-1.1,11.7,1.9,22.9,4.6,34.1a313.49,313.49,0,0,0,9.6,33.1c7.2,19.7,17.6,40.5,33,55.2a86.93,86.93,0,0,0,12.5,9.4c5.1,3.3,10.1,7.4,15.5,10.2,4.9,2.5,10.8,3.8,16,5.6,2.7.9,5.5,1.9,8.2,2.8,3.4,1.2,6.5,1.2,10.1,1.1h17.4c6.4,0,12.3-2.2,18.4-4,5.3-1.6,11.3-2.6,16.3-5,5.8-2.7,11.3-6.6,16.9-9.8,5-2.9,10-5.5,14.1-9.6,4.7-4.7,9.4-9.3,14-14,4.3-4.3,7.9-8,10.9-13.3,3.3-5.7,6.6-11.3,9.8-17,3.1-5.3,5.5-9.7,6.9-15.7,1.6-6.4,3.1-12.7,4.7-19.1,1.5-5.9,2.6-11,2.5-17.1-.1-6.7-.1-13.3-.2-20-.1-11-.8-21.8-4.2-32.3-3.1-9.5-7.2-19.8-13.2-27.8a50.26,50.26,0,0,0-10.5-10.6c-3.9-2.9-7.5-6.2-11.8-8.5a42.89,42.89,0,0,0-13.6-4.6c-5.7-1-11.4-.3-17.2-.3a104,104,0,0,0-33.7,5.1c-10.9,3.7-20.5,9.9-31,14.6a146.24,146.24,0,0,0-48.4,35.5c-7.8,8.6-13.9,18.6-21.1,27.7a167.82,167.82,0,0,0-17.3,26,178.63,178.63,0,0,0-12.4,28.8,109.48,109.48,0,0,0-3.8,16c-1.1,6.4-2.6,12.7-4,19.1a78,78,0,0,0,.4,34c1.3,5.3,2.7,10.7,6.2,14.9,3.6,4.4,7.1,8.8,10.8,13.2,13.8,16.5,35.3,21,55.4,24.9,12,2.3,23.4,1.5,35.4-.2,11.5-1.7,22.8-3.7,33.8-7.5,20.7-7.1,41.3-15.2,58.8-28.6,9.2-7,18.1-14.4,27-21.6a225.7,225.7,0,0,0,23.7-22.2c3.5-3.8,6.8-7.7,10.1-11.7,3.4-4.3,7.6-8.8,10.2-13.7s4.3-10.5,6.3-15.6c2.2-5.5,5.6-10.5,7.6-16.1a52.41,52.41,0,0,0,1.7-29.6,59,59,0,0,0-5.9-15.6c-2.9-5.2-7.5-9.6-11.3-14.2-6.1-7.5-11.6-14.9-19.2-21A98.24,98.24,0,0,0,436,132.5c-10.8-4.4-22.4-6.3-33.3-10a157.12,157.12,0,0,0-33.3-7.3,151,151,0,0,0-33.6.1c-5.7.6-11.2,2.4-16.7,3.8-5.2,1.3-10.5,2.1-15.7,3.4a83.35,83.35,0,0,0-27.3,12.4c-4.1,2.9-8.7,6-11.6,10.1s-6.6,8.5-9,13.1c-4.8,9.4-2.6,19-.3,28.7a94.92,94.92,0,0,0,11.9,28.9c10.7,17.7,25.6,32.8,44.2,42.2,9.8,5,20.3,9.6,30.5,13.8a99,99,0,0,0,32.7,7.3c5.4.3,10.7-.2,16.1-.4,5.9-.2,11.9.2,17.8-1a42.71,42.71,0,0,0,23-12.4c3-3.2,5.2-7,7.7-10.5,1.6-2.2,3.6-4.3,5-6.7a30.2,30.2,0,0,0,3.4-9.4c2.8-11.6,1-21.9-2.7-33-1.6-5-2.4-10.2-4.3-15.1a86.09,86.09,0,0,0-7.2-14.2,98.4,98.4,0,0,0-19.1-22.6c-4.2-3.6-8.1-7.6-12.2-11.4-4.3-3.9-9.5-6.7-14.5-9.5a182.88,182.88,0,0,0-29.7-13.2,175.65,175.65,0,0,0-32.1-7.3c-11.8-1.7-23.5-3.9-35.5-4.8a219.92,219.92,0,0,0-36.3.3c-11.5,1-22.7,4.3-34.1,6.1a106.52,106.52,0,0,0-28.6,8.8c-8.6,4-19,9.7-25.2,16.9-3.6,4.2-6.4,9.6-9.5,14.3s-7.7,9.8-9.6,15.1c-1.7,4.9-1.8,11.4-1.8,16.5a78.14,78.14,0,0,0,1.5,16c2.1,11.1,7.5,21.1,11.5,31.6a126.48,126.48,0,0,0,14.6,28.3,123.06,123.06,0,0,0,20.1,22.5c3.9,3.4,7.9,6.4,11.8,9.8,4.5,4,9,8.4,13.9,11.9a142,142,0,0,0,28.7,15.5c10.3,4.2,20.8,6.4,31.6,9,11.8,2.8,23.3,6,35.5,6.9a140,140,0,0,0,35.4-2.2c5.4-1,11.2-1.2,16.3-2.9a42.79,42.79,0,0,0,13-6.9,52,52,0,0,0,17.4-22.2c7.8-19.7,5.9-43.8.5-63.9s-9.9-40.2-24-56.4a81.69,81.69,0,0,0-9.4-9.2c-3.9-3.2-7.4-6.7-11.3-10a70.58,70.58,0,0,0-24.5-13.7c-10.5-3.4-20.8-2.9-31.7-2.8-2.6,0-5.7-.4-8.2.3-2.7.7-5.6,2.7-8,3.9-5.3,2.6-10.5,4.1-13.4,9.5-2.6,4.9-6.4,9.9-6.4,15.5s-.3,11.6.7,17.1c2,11,6.1,21.7,10.9,31.7,5.1,10.4,11.7,20,18.8,29.2,6.5,8.5,13.5,16.5,22.5,22.5,14.8,9.9,38.5,11.1,51.9-1.7,7.4-7,11.4-16.2,12.7-26.2.7-5.2.3-10.4.3-15.6a112.12,112.12,0,0,0-1.6-18.3c-3.5-20.2-10.8-41.3-23.6-57.5-5.8-7.3-12.3-15-21.2-18.5-8.7-3.4-19.4-3.5-28.4-1.2-19.3,4.8-33.8,18.7-42.3,36.2-8.3,17-14.8,38-12,57.2,1.2,8.3,7.1,19.2,15.9,20.8s19.1-5,25.9-10.2c15.6-12,23-32.7,23.5-51.9.4-17.1-4.9-38.7-17.7-50.9-7-6.6-16.4-7.3-25.6-6.7-11.4.8-22.7,2.8-33.9,4.5-6.5.2-3.3,11.7,4.3,10.6Z"/></svg>